<svg width="137" height="78" viewBox="0 0 137 78" fill="none" xmlns="http://www.w3.org/2000/svg">
<path d="M15.8 55.6C14.5667 55.6 13.2833 55.3 11.95 54.7C10.6167 54.1333 9.48333 53.1667 8.55 51.8C7.65 50.4333 7.2 48.6167 7.2 46.35C7.2 43.95 7.4 41.4667 7.8 38.9C8.23333 36.3 8.78333 33.75 9.45 31.25C10.15 28.7167 10.9 26.3333 11.7 24.1C12.5333 21.8667 13.35 19.8833 14.15 18.15C14.9833 16.4167 15.75 15.0667 16.45 14.1C17.1833 13.1 17.7667 12.6 18.2 12.6C19.1 12.6 19.9 12.9333 20.6 13.6C21.3333 14.2667 21.7 15.2833 21.7 16.65C21.7 16.9833 21.5 17.8 21.1 19.1C20.7333 20.3667 20.25 21.95 19.65 23.85C19.0833 25.75 18.45 27.8167 17.75 30.05C17.0833 32.25 16.45 34.4833 15.85 36.75C15.2833 39.0167 14.8 41.15 14.4 43.15C14.0333 45.15 13.85 46.8667 13.85 48.3C13.85 48.7 14.0833 48.9 14.55 48.9C15.2167 48.9 16.2 48.7333 17.5 48.4C18.8333 48.0667 20.2833 47.65 21.85 47.15C23.45 46.6167 24.9833 46.1 26.45 45.6C27.9167 45.1 29.1667 44.6833 30.2 44.35C31.2333 44.0167 31.8167 43.85 31.95 43.85C32.7833 43.85 33.45 44.0833 33.95 44.55C34.45 45.0167 34.7 45.6833 34.7 46.55C34.7 47.15 34.3 47.85 33.5 48.65C32.7 49.4167 31.6333 50.2167 30.3 51.05C28.9667 51.85 27.4667 52.5833 25.8 53.25C24.1667 53.95 22.4833 54.5167 20.75 54.95C19.0167 55.3833 17.3667 55.6 15.8 55.6ZM48.877 54.65C46.5103 54.65 44.6103 53.8167 43.177 52.15C41.7436 50.45 41.027 48.1833 41.027 45.35C41.027 44.45 41.1436 43.5333 41.377 42.6C41.6436 41.6667 41.9603 40.8 42.327 40C42.127 39.7 41.9603 39.3167 41.827 38.85C41.727 38.35 41.677 37.7667 41.677 37.1C41.677 34.9333 42.0603 32.95 42.827 31.15C43.5936 29.3167 44.627 27.7333 45.927 26.4C47.227 25.0667 48.6603 24.0333 50.227 23.3C51.7936 22.5667 53.377 22.2 54.977 22.2C57.7103 22.2 59.9436 23.1167 61.677 24.95C63.4436 26.7833 64.327 29.6333 64.327 33.5C64.327 35.4333 64.027 37.4 63.427 39.4C62.827 41.4 62.0103 43.3167 60.977 45.15C59.977 46.95 58.8103 48.5667 57.477 50C56.177 51.4333 54.777 52.5667 53.277 53.4C51.8103 54.2333 50.3436 54.65 48.877 54.65ZM48.077 37.75C48.2436 38.1167 48.327 38.55 48.327 39.05C48.327 39.55 48.227 40.0667 48.027 40.6C47.827 41.1333 47.627 41.85 47.427 42.75C47.227 43.6167 47.127 44.8667 47.127 46.5C47.127 46.9333 47.177 47.3 47.277 47.6C47.4103 47.8667 47.6936 48 48.127 48C49.2603 48 50.327 47.6333 51.327 46.9C52.3603 46.1667 53.277 45.2 54.077 44C54.9103 42.8 55.6103 41.4667 56.177 40C56.777 38.5 57.227 36.9833 57.527 35.45C57.8603 33.8833 58.027 32.4333 58.027 31.1C58.027 30.2333 57.8603 29.6333 57.527 29.3C57.1936 28.9667 56.6103 28.8 55.777 28.8C54.6436 28.8 53.477 29.1667 52.277 29.9C51.1103 30.6 50.127 31.5667 49.327 32.8C48.527 34 48.127 35.3667 48.127 36.9C48.127 37.2 48.1103 37.4833 48.077 37.75ZM78.7031 52.95C77.8365 52.95 77.0698 52.5333 76.4031 51.7C75.7698 50.8667 75.2865 49.5833 74.9531 47.85C74.6865 46.3833 74.4531 44.7167 74.2531 42.85C74.0531 40.9833 73.8698 39.15 73.7031 37.35C73.5698 35.5167 73.4698 33.9167 73.4031 32.55C73.3365 31.1833 73.3031 30.25 73.3031 29.75C73.3031 27.95 73.6198 26.4667 74.2531 25.3C74.8865 24.1 76.1031 23.5 77.9031 23.5C78.6698 23.5 79.2531 23.8333 79.6531 24.5C80.0531 25.1333 80.2531 26.0167 80.2531 27.15C80.2531 27.85 80.2531 28.7333 80.2531 29.8C80.2865 30.8333 80.3198 32 80.3531 33.3C80.3865 34.7333 80.4198 36.2833 80.4531 37.95C80.5198 39.5833 80.5531 41.2167 80.5531 42.85C81.7198 41.0167 82.9698 39.0667 84.3031 37C85.6365 34.9 86.9365 32.8667 88.2031 30.9C89.5031 28.9333 90.6698 27.2 91.7031 25.7C92.7365 24.1667 93.5198 23.0833 94.0531 22.45C94.5198 21.8833 95.0865 21.4 95.7531 21C96.4198 20.5667 97.1198 20.35 97.8531 20.35C98.6531 20.35 99.3198 20.6667 99.8531 21.3C100.386 21.9333 100.653 22.6667 100.653 23.5C100.653 24.1333 100.52 24.7333 100.253 25.3C100.02 25.8667 99.7198 26.4 99.3531 26.9C98.3531 28.3 97.1698 29.9333 95.8031 31.8C94.4698 33.6667 93.0698 35.6333 91.6031 37.7C90.1365 39.7333 88.7031 41.7 87.3031 43.6C85.9365 45.5 84.7198 47.1833 83.6531 48.65C82.7865 49.8833 82.0865 50.8167 81.5531 51.45C81.0198 52.05 80.5365 52.45 80.1031 52.65C79.7031 52.85 79.2365 52.95 78.7031 52.95ZM110.099 54.7C108.032 54.7 106.365 53.9833 105.099 52.55C103.832 51.0833 103.199 48.7333 103.199 45.5C103.199 43.4333 103.432 41.3667 103.899 39.3C104.399 37.2 105.082 35.2167 105.949 33.35C106.849 31.45 107.882 29.7667 109.049 28.3C110.249 26.8333 111.565 25.6833 112.999 24.85C114.432 23.9833 115.915 23.55 117.449 23.55C120.049 23.55 122.082 24.25 123.549 25.65C125.015 27.05 125.749 28.8333 125.749 31C125.749 32.6667 125.282 34.1833 124.349 35.55C123.449 36.8833 122.215 38.0833 120.649 39.15C119.082 40.2167 117.332 41.1833 115.399 42.05C113.465 42.9167 111.482 43.7 109.449 44.4C109.282 45.6 109.199 46.6667 109.199 47.6C109.199 48.1667 109.515 48.45 110.149 48.45C111.649 48.45 113.249 48.2167 114.949 47.75C116.682 47.25 118.432 46.6167 120.199 45.85C121.965 45.05 123.665 44.2333 125.299 43.4C126.932 42.5333 128.415 41.7167 129.749 40.95C131.115 40.15 132.232 39.5167 133.099 39.05C133.999 38.55 134.582 38.3 134.849 38.3C135.582 38.3 136.115 38.5167 136.449 38.95C136.782 39.3833 136.949 39.85 136.949 40.35C136.949 40.5833 136.499 41.1 135.599 41.9C134.732 42.7 133.532 43.65 131.999 44.75C130.499 45.8167 128.799 46.9333 126.899 48.1C125.032 49.2333 123.082 50.3167 121.049 51.35C119.049 52.35 117.099 53.15 115.199 53.75C113.332 54.3833 111.632 54.7 110.099 54.7ZM110.299 39.95C111.665 39.15 113.015 38.3167 114.349 37.45C115.715 36.55 116.849 35.55 117.749 34.45C118.649 33.3167 119.099 32 119.099 30.5C119.099 30.0667 118.982 29.7833 118.749 29.65C118.515 29.4833 118.182 29.4 117.749 29.4C116.582 29.4 115.515 29.9167 114.549 30.95C113.615 31.9833 112.782 33.3167 112.049 34.95C111.349 36.55 110.765 38.2167 110.299 39.95Z" fill="#CBA9A9"/>
<path d="M10.502 65.628C10.1007 65.628 9.74133 65.7073 9.424 65.866C9.116 66.0247 8.85467 66.2533 8.64 66.552C8.42533 66.8413 8.262 67.196 8.15 67.616C8.04733 68.036 7.996 68.5073 7.996 69.03C7.996 69.7393 8.08 70.346 8.248 70.85C8.42533 71.3447 8.70067 71.7227 9.074 71.984C9.44733 72.2453 9.92333 72.376 10.502 72.376C10.9127 72.376 11.3187 72.3293 11.72 72.236C12.1307 72.1427 12.574 72.012 13.05 71.844V73.622C12.6113 73.7993 12.1773 73.93 11.748 74.014C11.3187 74.098 10.838 74.14 10.306 74.14C9.27933 74.14 8.43 73.93 7.758 73.51C7.09533 73.0807 6.60533 72.4833 6.288 71.718C5.97067 70.9433 5.812 70.0427 5.812 69.016C5.812 68.26 5.91467 67.5693 6.12 66.944C6.32533 66.3093 6.624 65.7633 7.016 65.306C7.41733 64.8487 7.90733 64.494 8.486 64.242C9.074 63.99 9.746 63.864 10.502 63.864C10.9967 63.864 11.4913 63.9293 11.986 64.06C12.49 64.1813 12.9707 64.3493 13.428 64.564L12.742 66.286C12.3687 66.1087 11.9907 65.9547 11.608 65.824C11.2347 65.6933 10.866 65.628 10.502 65.628ZM19.0241 74H16.9101V65.768H14.1941V64.004H21.7401V65.768H19.0241V74ZM28.2095 71.074C27.9295 71.7087 27.6308 72.2593 27.3135 72.726C27.0055 73.1833 26.6088 73.5333 26.1235 73.776C25.6382 74.0187 25.0035 74.14 24.2195 74.14C23.9768 74.14 23.7108 74.1213 23.4215 74.084C23.1322 74.0467 22.8662 73.9953 22.6235 73.93V72.11C22.8475 72.2033 23.0948 72.2687 23.3655 72.306C23.6362 72.3433 23.8882 72.362 24.1215 72.362C24.4295 72.362 24.6768 72.3107 24.8635 72.208C25.0595 72.1053 25.2135 71.9653 25.3255 71.788C25.4468 71.6013 25.5448 71.4007 25.6195 71.186L22.1615 64.004H24.4015L26.2635 68.33C26.3102 68.4233 26.3662 68.5447 26.4315 68.694C26.4968 68.8433 26.5622 68.9973 26.6275 69.156C26.6928 69.3147 26.7442 69.4547 26.7815 69.576H26.8515C26.8888 69.464 26.9355 69.3287 26.9915 69.17C27.0568 69.002 27.1222 68.834 27.1875 68.666C27.2622 68.4887 27.3275 68.3347 27.3835 68.204L29.1195 64.004H31.3035L28.2095 71.074ZM39.6934 64.004V72.236H41.0234V76.912H38.9794V74H32.7214V76.912H30.6774V72.236H31.4474C31.7088 71.7133 31.9608 71.1627 32.2034 70.584C32.4461 70.0053 32.6701 69.3847 32.8754 68.722C33.0901 68.0593 33.2814 67.3407 33.4494 66.566C33.6174 65.782 33.7574 64.928 33.8694 64.004H39.6934ZM35.5494 65.768C35.4841 66.2533 35.3908 66.7713 35.2694 67.322C35.1481 67.8633 35.0034 68.4187 34.8354 68.988C34.6768 69.5573 34.4994 70.1173 34.3034 70.668C34.1074 71.2187 33.8974 71.7413 33.6734 72.236H37.5794V65.768H35.5494ZM42.5588 64.004H44.4628V68.834C44.4628 69.0673 44.4582 69.3287 44.4488 69.618C44.4395 69.9073 44.4302 70.192 44.4208 70.472C44.4115 70.7427 44.4022 70.9807 44.3928 71.186C44.3835 71.382 44.3742 71.5173 44.3648 71.592H44.4068L49.0268 64.004H51.5608V74H49.6708V69.198C49.6708 68.946 49.6755 68.6707 49.6848 68.372C49.6942 68.064 49.7035 67.77 49.7128 67.49C49.7315 67.21 49.7455 66.9673 49.7548 66.762C49.7735 66.5473 49.7875 66.4073 49.7968 66.342H49.7408L45.1068 74H42.5588V64.004ZM57.4442 70.164L55.1062 74H52.7542L55.5962 69.604C55.3256 69.492 55.0549 69.3287 54.7842 69.114C54.5136 68.89 54.2896 68.596 54.1122 68.232C53.9349 67.8587 53.8462 67.4013 53.8462 66.86C53.8462 65.936 54.1776 65.2313 54.8402 64.746C55.5029 64.2513 56.4316 64.004 57.6262 64.004H60.8742V74H58.7602V70.164H57.4442ZM57.7102 65.74C57.3462 65.74 57.0336 65.782 56.7722 65.866C56.5202 65.95 56.3242 66.0853 56.1842 66.272C56.0536 66.4587 55.9882 66.706 55.9882 67.014C55.9882 67.4527 56.1329 67.8027 56.4222 68.064C56.7209 68.316 57.1689 68.442 57.7662 68.442H58.7602V65.74H57.7102ZM78.2693 74H75.8613L72.2353 68.932V74H70.1213V64.004H72.2353V68.848L75.8193 64.004H78.0733L74.4333 68.806L78.2693 74ZM82.7196 64.004C84.0076 64.004 84.9456 64.284 85.5336 64.844C86.1309 65.3947 86.4296 66.1553 86.4296 67.126C86.4296 67.5647 86.3642 67.9847 86.2336 68.386C86.1029 68.778 85.8836 69.1327 85.5756 69.45C85.2769 69.758 84.8802 70.0007 84.3856 70.178C83.8909 70.3553 83.2796 70.444 82.5516 70.444H81.6416V74H79.5276V64.004H82.7196ZM82.6076 65.74H81.6416V68.708H82.3416C82.7429 68.708 83.0882 68.6567 83.3776 68.554C83.6669 68.4513 83.8909 68.288 84.0496 68.064C84.2082 67.84 84.2876 67.5507 84.2876 67.196C84.2876 66.7013 84.1522 66.3373 83.8816 66.104C83.6109 65.8613 83.1862 65.74 82.6076 65.74ZM93.7393 74L93.0113 71.62H89.3713L88.6433 74H86.3613L89.8893 63.962H92.4793L96.0213 74H93.7393ZM91.7793 67.518C91.7327 67.3593 91.672 67.1587 91.5973 66.916C91.5227 66.6733 91.448 66.426 91.3733 66.174C91.2987 65.922 91.238 65.7027 91.1913 65.516C91.1447 65.7027 91.0793 65.936 90.9953 66.216C90.9207 66.4867 90.846 66.748 90.7713 67C90.706 67.2427 90.6547 67.4153 90.6173 67.518L89.9033 69.842H92.5073L91.7793 67.518ZM101.529 65.628C101.128 65.628 100.769 65.7073 100.451 65.866C100.143 66.0247 99.882 66.2533 99.6673 66.552C99.4527 66.8413 99.2893 67.196 99.1773 67.616C99.0747 68.036 99.0233 68.5073 99.0233 69.03C99.0233 69.7393 99.1073 70.346 99.2753 70.85C99.4527 71.3447 99.728 71.7227 100.101 71.984C100.475 72.2453 100.951 72.376 101.529 72.376C101.94 72.376 102.346 72.3293 102.747 72.236C103.158 72.1427 103.601 72.012 104.077 71.844V73.622C103.639 73.7993 103.205 73.93 102.775 74.014C102.346 74.098 101.865 74.14 101.333 74.14C100.307 74.14 99.4573 73.93 98.7853 73.51C98.1227 73.0807 97.6327 72.4833 97.3153 71.718C96.998 70.9433 96.8393 70.0427 96.8393 69.016C96.8393 68.26 96.942 67.5693 97.1473 66.944C97.3527 66.3093 97.6513 65.7633 98.0433 65.306C98.4447 64.8487 98.9347 64.494 99.5133 64.242C100.101 63.99 100.773 63.864 101.529 63.864C102.024 63.864 102.519 63.9293 103.013 64.06C103.517 64.1813 103.998 64.3493 104.455 64.564L103.769 66.286C103.396 66.1087 103.018 65.9547 102.635 65.824C102.262 65.6933 101.893 65.628 101.529 65.628ZM115 68.988C115 69.7627 114.902 70.4673 114.706 71.102C114.519 71.7273 114.23 72.2687 113.838 72.726C113.455 73.1833 112.961 73.5333 112.354 73.776C111.757 74.0187 111.052 74.14 110.24 74.14C109.428 74.14 108.719 74.0187 108.112 73.776C107.515 73.524 107.02 73.174 106.628 72.726C106.245 72.2687 105.956 71.7227 105.76 71.088C105.573 70.4533 105.48 69.7487 105.48 68.974C105.48 67.938 105.648 67.0373 105.984 66.272C106.329 65.5067 106.852 64.914 107.552 64.494C108.261 64.0647 109.162 63.85 110.254 63.85C111.337 63.85 112.228 64.0647 112.928 64.494C113.628 64.914 114.146 65.5113 114.482 66.286C114.827 67.0513 115 67.952 115 68.988ZM107.706 68.988C107.706 69.688 107.795 70.29 107.972 70.794C108.149 71.298 108.425 71.6853 108.798 71.956C109.171 72.2267 109.652 72.362 110.24 72.362C110.847 72.362 111.332 72.2267 111.696 71.956C112.069 71.6853 112.34 71.298 112.508 70.794C112.685 70.29 112.774 69.688 112.774 68.988C112.774 67.9333 112.578 67.1073 112.186 66.51C111.794 65.9127 111.15 65.614 110.254 65.614C109.657 65.614 109.171 65.7493 108.798 66.02C108.425 66.2907 108.149 66.678 107.972 67.182C107.795 67.686 107.706 68.288 107.706 68.988ZM120.497 74H118.383V65.768H115.667V64.004H123.213V65.768H120.497V74ZM124.754 74V64.004H126.868V67.84H127.554C128.478 67.84 129.239 67.9707 129.836 68.232C130.433 68.4933 130.872 68.8527 131.152 69.31C131.441 69.7673 131.586 70.29 131.586 70.878C131.586 71.5313 131.441 72.0913 131.152 72.558C130.863 73.0247 130.415 73.384 129.808 73.636C129.211 73.8787 128.436 74 127.484 74H124.754ZM127.428 72.264C128.053 72.264 128.543 72.1613 128.898 71.956C129.262 71.7507 129.444 71.3913 129.444 70.878C129.444 70.5233 129.36 70.2527 129.192 70.066C129.033 69.8793 128.795 69.7533 128.478 69.688C128.161 69.6133 127.778 69.576 127.33 69.576H126.868V72.264H127.428ZM132.804 74V64.004H134.918V74H132.804Z" fill="#CBA9A9"/>
</svg>
